<svg width="49" height="64" xmlns="http://www.w3.org/2000/svg"><path d="M25.232 63.943c-2.245-.366-4.219-1.822-5.194-3.829-.547-1.122-.675-1.793-.728-3.662-.038-1.48-.057-1.613-.314-2.288-.275-.737-.956-1.584-1.631-2.04a5.526 5.526 0 0 0-1.341-.628l-.352-.11-7.838-.014L0 51.362v-3.048l7.933.019 7.93.014.475.105c1.698.385 3.006 1.141 4.142 2.397.809.894 1.456 2.178 1.703 3.377.129.613.171 1.175.171 2.202 0 1.408.143 1.993.671 2.787a3.913 3.913 0 0 0 3.296 1.76c1.788 0 3.272-1.122 3.82-2.882l.132-.428.015-4.48.014-4.481-4.295-.02-4.295-.013-.575-.129c-3.268-.723-5.755-2.915-6.778-5.978a8.883 8.883 0 0 1 .052-5.822c1-2.82 3.382-4.975 6.326-5.712.814-.205 1.38-.262 2.588-.262 1.174 0 1.417-.033 1.484-.214.09-.233-.39-.618-1.394-1.122-.376-.186-.67-.352-.656-.376.01-.02-.153-.138-.371-.262-3.02-1.755-5.537-4.537-6.978-7.72-2.202-4.865-1.988-10.52.566-15.181.98-1.784 2.488-3.667 3.62-4.504.76-.566 1.75-.985 2.996-1.265.447-.1.5-.1 8.2-.114 7.681-.015 7.757-.015 8.338.08 1.655.281 3.143.947 4.209 1.884.946.832 2.378 2.91 3.272 4.751.894 1.846 1.394 3.51 1.646 5.47.119.904.119 2.806 0 3.781-.419 3.52-1.812 6.65-4.148 9.327a17.926 17.926 0 0 1-4.237 3.491c-.22.124-.38.243-.371.262.014.024-.281.19-.657.376-1.003.504-1.484.889-1.393 1.122.066.176.314.214 1.465.214 1.503 0 2.302.124 3.434.523a9.018 9.018 0 0 1 5.774 6.564c1.003 4.67-1.87 9.332-6.507 10.554-1.07.28-1.227.29-4.918.29h-3.358v4.176c0 4.129-.024 4.89-.166 5.584-.271 1.322-.928 2.52-1.922 3.515-.999.999-2.097 1.598-3.49 1.902-.586.129-1.922.167-2.531.067zm15.2-17.465c.976-.243 1.666-.542 2.431-1.056 1.575-1.056 2.597-2.606 2.973-4.5.124-.641.114-1.835-.029-2.496-.528-2.474-2.259-4.419-4.637-5.208-1.08-.357-.21-.329-9.803-.348-6.111-.01-8.718 0-8.989.038-2.977.414-5.35 2.621-5.926 5.518-.69 3.467 1.446 6.92 4.894 7.924.894.256.49.247 9.926.237l8.752-.01.409-.099zm-8.375-18.516a13.905 13.905 0 0 0 3.353-.69c4.795-1.598 8.352-5.626 9.275-10.511.219-1.16.276-2.75.143-3.89-.195-1.68-.78-3.449-1.675-5.056-.56-1.014-1.526-2.383-2.03-2.892-.942-.937-2.312-1.57-3.943-1.808-.429-.066-1.29-.076-6.245-.076-3.396 0-5.931.02-6.193.048-2.33.247-3.753 1.222-5.441 3.733-1.123 1.675-1.85 3.572-2.16 5.656-.1.66-.137 2.297-.07 3.006.384 4.2 2.61 7.904 6.14 10.22 2.601 1.713 5.797 2.526 8.846 2.26z"/><path d="M23.006 44.913c-2.04-.366-3.662-1.874-4.205-3.91-.109-.408-.123-.546-.123-1.27 0-.722.014-.86.123-1.284.153-.566.547-1.393.88-1.835a5.295 5.295 0 0 1 4.547-2.122 5.299 5.299 0 0 1 4.766 3.567c.343 1.009.343 2.34 0 3.349a5.351 5.351 0 0 1-3.405 3.334c-.733.243-1.808.314-2.583.171zm1.707-2.112c2.036-.518 3.035-2.692 2.079-4.532-.224-.438-.818-1.042-1.251-1.284-.533-.29-.937-.39-1.593-.39-.661.004-.942.07-1.522.37-.723.376-1.323 1.123-1.575 1.96-.119.39-.119 1.222 0 1.617a3.277 3.277 0 0 0 1.717 2.026 3.104 3.104 0 0 0 2.145.233zm12.3 2.122c-2.264-.433-3.957-2.136-4.319-4.347-.09-.533-.066-1.46.048-1.96a5.31 5.31 0 0 1 2.692-3.515c.899-.47 1.707-.652 2.735-.609.827.038 1.393.181 2.14.552a5.243 5.243 0 0 1 2.773 3.377c.11.404.124.547.124 1.289.004.709-.015.894-.105 1.25-.485 1.922-1.926 3.368-3.857 3.872-.571.148-1.68.195-2.23.09zm1.87-2.17c.817-.256 1.564-.884 1.92-1.626.581-1.194.39-2.535-.484-3.49-1.689-1.846-4.723-1.17-5.465 1.217-.167.532-.152 1.308.028 1.83.143.42.357.795.623 1.11.395.456 1.128.893 1.741 1.031.428.1 1.203.062 1.636-.071zm-13.237-18.5a3.274 3.274 0 0 1-1.508-.88c-.642-.643-.956-1.333-1.008-2.212-.038-.614.066-1.123.352-1.713.185-.385.28-.513.651-.88.5-.499.975-.765 1.641-.932.809-.204 1.798-.057 2.516.371 1.674.994 2.178 3.22 1.099 4.842a3.448 3.448 0 0 1-1.974 1.403c-.49.128-1.284.124-1.77 0zm1.522-1.78c.528-.219.87-.599 1.013-1.146.185-.704-.176-1.45-.89-1.831-.532-.286-1.174-.247-1.698.1-.88.59-.994 1.769-.247 2.52.347.348.647.467 1.17.467.29 0 .442-.024.652-.11zm7.324 1.78c-1.565-.41-2.635-1.927-2.511-3.554.062-.823.395-1.531.999-2.13.666-.662 1.346-.966 2.269-1.009 1.56-.08 2.906.847 3.405 2.34.114.338.128.452.128 1.046 0 .59-.014.71-.123 1.033-.38 1.136-1.275 1.988-2.397 2.273-.49.128-1.285.124-1.77 0zm1.57-1.799c.352-.171.637-.456.808-.808.138-.281.157-.362.157-.7-.004-.309-.028-.432-.128-.646a1.674 1.674 0 0 0-.761-.809c-.28-.152-.328-.162-.752-.162-.547.005-.784.095-1.16.452a1.6 1.6 0 0 0-.195 2.15c.176.238.49.48.775.585.276.11.975.071 1.256-.062zM21.95 16.932a3.488 3.488 0 0 1-2.14-1.198c-.29-.338-.628-1.023-.718-1.47-.11-.509-.067-1.284.09-1.774a3.402 3.402 0 0 1 3.458-2.35c2.268.133 3.762 2.35 3.039 4.523-.357 1.07-1.365 1.974-2.469 2.212-.337.071-.98.1-1.26.057zm.975-1.817c.461-.114.96-.58 1.118-1.037.09-.27.09-.79 0-1.046-.176-.504-.59-.89-1.137-1.056-.409-.128-.785-.1-1.194.095-1.241.59-1.284 2.255-.071 2.902.433.233.785.27 1.284.142zm7.534 1.812a3.822 3.822 0 0 1-1.246-.437c-.39-.228-1.004-.851-1.223-1.241-.323-.586-.418-.966-.423-1.675-.005-.523.014-.675.105-.975.309-.989.894-1.679 1.793-2.116a3.41 3.41 0 0 1 4.808 2.164c.134.48.124 1.393-.019 1.855-.195.618-.413.98-.889 1.45-.347.352-.504.471-.832.628-.224.11-.533.233-.69.271-.37.09-1.018.129-1.384.076zm1.09-1.835c.232-.081.56-.31.722-.505.252-.294.376-.642.38-1.036 0-.314-.023-.405-.156-.676a1.785 1.785 0 0 0-.856-.837c-.229-.105-.338-.128-.676-.128s-.447.023-.675.128c-.87.404-1.242 1.332-.861 2.145.385.813 1.284 1.199 2.121.909zm7.571 1.854c-1.336-.2-2.335-.95-2.797-2.111-.19-.48-.237-.742-.237-1.308 0-.628.08-.98.361-1.546.257-.528.88-1.175 1.389-1.436.604-.314.96-.395 1.688-.39.557.004.695.019 1.013.123a3.589 3.589 0 0 1 1.39.866c.39.4.641.808.817 1.336.12.343.129.447.129 1.07 0 .633-.01.723-.133 1.07-.386 1.109-1.218 1.908-2.307 2.208-.347.095-1.037.157-1.313.118zm1.046-1.921a1.74 1.74 0 0 0 .823-.809c.11-.223.129-.323.129-.665 0-.362-.02-.443-.157-.723a1.641 1.641 0 0 0-.818-.795c-.22-.1-.328-.123-.666-.123-.366 0-.438.014-.723.157-1.013.499-1.26 1.73-.51 2.554.52.56 1.247.718 1.922.404zM26.302 10.43a2.81 2.81 0 0 1-2.069-1.969c-.09-.342-.09-1.046 0-1.403.186-.699.766-1.408 1.413-1.712.846-.404 1.64-.4 2.492.019a2.79 2.79 0 0 1 1.36 1.555c.152.405.152 1.299 0 1.703a2.79 2.79 0 0 1-1.36 1.555c-.633.31-1.208.39-1.836.252zm.98-1.76c.219-.104.475-.404.547-.627.114-.39-.067-.866-.424-1.104-.123-.08-.261-.119-.47-.133-.39-.028-.671.105-.885.41-.138.199-.152.256-.152.556 0 .3.014.356.152.551.195.281.47.424.813.424.143 0 .328-.034.419-.076zm7.534 1.76a2.835 2.835 0 0 1-2.055-1.807c-.152-.404-.152-1.298 0-1.703a2.832 2.832 0 0 1 2.078-1.812 2.362 2.362 0 0 1 1.094 0 2.78 2.78 0 0 1 2.093 1.974c.09.342.09 1.051 0 1.403-.185.7-.766 1.408-1.412 1.712-.614.29-1.185.367-1.798.233zm1.032-1.783c.128-.062.266-.186.361-.319.138-.2.152-.257.152-.556 0-.3-.014-.357-.152-.557-.219-.309-.494-.437-.894-.409-.252.014-.338.043-.485.162-.366.295-.504.661-.395 1.06.062.234.31.528.538.643.218.109.627.095.875-.024z"/></svg>