<svg xmlns="http://www.w3.org/2000/svg" width="64" height="64"><path fill-rule="evenodd" d="M45.909 22.306c-1.078-6.909-8.023-11.477-14.338-11.477-6.574 0-13.26 4.568-14.3 11.477h-.185V41.73h.185c1.078 6.909 8.358 11.589 14.3 11.478 6.055 0 13.26-4.569 14.338-11.478h.148V22.306h-.148zM21.914 19a1.49 1.49 0 0 1 1.486-1.486A1.49 1.49 0 0 1 24.886 19a1.49 1.49 0 0 1-1.486 1.486A1.49 1.49 0 0 1 21.914 19zm16.343 0a1.49 1.49 0 0 1 1.486-1.486A1.49 1.49 0 0 1 41.229 19a1.49 1.49 0 0 1-1.486 1.486A1.49 1.49 0 0 1 38.257 19zM20.8 27.357c0-1.114.929-2.043 2.043-2.043s2.043.929 2.043 2.043a2.061 2.061 0 0 1-2.043 2.043 2.061 2.061 0 0 1-2.043-2.043zm17.457 0c0-1.114.929-2.043 2.043-2.043s2.043.929 2.043 2.043A2.061 2.061 0 0 1 40.3 29.4a2.061 2.061 0 0 1-2.043-2.043zM20.8 38.5c0-1.114.929-2.043 2.043-2.043s2.043.929 2.043 2.043a2.061 2.061 0 0 1-2.043 2.043A2.061 2.061 0 0 1 20.8 38.5zm17.457 0c0-1.114.929-2.043 2.043-2.043s2.043.929 2.043 2.043a2.061 2.061 0 0 1-2.043 2.043 2.061 2.061 0 0 1-2.043-2.043zm-8.171 8.729a1.49 1.49 0 0 1 1.485-1.486 1.49 1.49 0 0 1 1.486 1.486 1.49 1.49 0 0 1-1.486 1.485 1.49 1.49 0 0 1-1.485-1.485zm20.057-26.743C48.769 12.277 40.857 6 31.57 6 22.286 6 14.337 12.277 13 20.486v23.028C14.374 51.723 22.286 58 31.571 58c9.286 0 17.235-6.277 18.572-14.486 1.337-8.208 0 0 0 0V20.486zm-2.6 1.25v20.627C46.354 49.754 39.557 55.4 31.57 55.4c-7.985 0-14.82-5.646-15.971-13.037V21.637C16.789 14.246 23.586 8.6 31.571 8.6c7.986 0 14.82 5.745 15.972 13.137z"/></svg>