<svg xmlns="http://www.w3.org/2000/svg" width="64" height="64"><path d="M15.364 42.485A19.68 19.68 0 0 0 30.727 52v-1.488c0-.666.512-1.175 1.182-1.175h1.182c.67 0 1.182.51 1.182 1.175V52a19.755 19.755 0 0 0 15.363-10.18v-6.58h1.182c.67 0 1.182-.51 1.182-1.175v-2.74c0-.666-.512-1.175-1.182-1.175h-1.182v-6.97A19.755 19.755 0 0 0 34.273 13v1.488c0 .666-.512 1.175-1.182 1.175h-1.182c-.67 0-1.182-.51-1.182-1.175V13a19.68 19.68 0 0 0-15.363 9.515v7.636h-1.182c-.67 0-1.182.509-1.182 1.174v2.741c0 .666.512 1.175 1.182 1.175h1.182v7.244zm4.333-9.79c0-1.605 1.34-2.936 2.955-2.936s2.954 1.331 2.954 2.937c0 1.605-1.34 2.937-2.954 2.937-1.616 0-2.955-1.332-2.955-2.937zm19.697 0c0-1.605 1.34-2.936 2.954-2.936 1.616 0 2.955 1.331 2.955 2.937 0 1.605-1.34 2.937-2.955 2.937s-2.954-1.332-2.954-2.937z"/></svg>